# HuskyA300 body, metres, robot frame (+Y fwd, +X right, +Z up). Generated by
# webots-agri/tools/gen_husky_selffilter_stl.py -- do not edit by hand.
v -0.21825 -0.40000 0.11510
v -0.21825 0.40000 0.11510
v 0.21825 0.40000 0.11510
f 1 2 3
v -0.21825 -0.40000 0.11510
v 0.21825 0.40000 0.11510
v 0.21825 -0.40000 0.11510
f 4 5 6
v -0.21825 -0.40000 0.33510
v 0.21825 -0.40000 0.33510
v 0.21825 0.40000 0.33510
f 7 8 9
v -0.21825 -0.40000 0.33510
v 0.21825 0.40000 0.33510
v -0.21825 0.40000 0.33510
f 10 11 12
v -0.21825 -0.40000 0.11510
v 0.21825 -0.40000 0.11510
v 0.21825 -0.40000 0.33510
f 13 14 15
v -0.21825 -0.40000 0.11510
v 0.21825 -0.40000 0.33510
v -0.21825 -0.40000 0.33510
f 16 17 18
v 0.21825 0.40000 0.11510
v -0.21825 0.40000 0.11510
v -0.21825 0.40000 0.33510
f 19 20 21
v 0.21825 0.40000 0.11510
v -0.21825 0.40000 0.33510
v 0.21825 0.40000 0.33510
f 22 23 24
v 0.21825 -0.40000 0.11510
v 0.21825 0.40000 0.11510
v 0.21825 0.40000 0.33510
f 25 26 27
v 0.21825 -0.40000 0.11510
v 0.21825 0.40000 0.33510
v 0.21825 -0.40000 0.33510
f 28 29 30
v -0.21825 0.40000 0.11510
v -0.21825 -0.40000 0.11510
v -0.21825 -0.40000 0.33510
f 31 32 33
v -0.21825 0.40000 0.11510
v -0.21825 -0.40000 0.33510
v -0.21825 0.40000 0.33510
f 34 35 36
v -0.34255 -0.43000 0.34020
v -0.34255 0.43000 0.34020
v 0.34255 0.43000 0.34020
f 37 38 39
v -0.34255 -0.43000 0.34020
v 0.34255 0.43000 0.34020
v 0.34255 -0.43000 0.34020
f 40 41 42
v -0.34255 -0.43000 0.37020
v 0.34255 -0.43000 0.37020
v 0.34255 0.43000 0.37020
f 43 44 45
v -0.34255 -0.43000 0.37020
v 0.34255 0.43000 0.37020
v -0.34255 0.43000 0.37020
f 46 47 48
v -0.34255 -0.43000 0.34020
v 0.34255 -0.43000 0.34020
v 0.34255 -0.43000 0.37020
f 49 50 51
v -0.34255 -0.43000 0.34020
v 0.34255 -0.43000 0.37020
v -0.34255 -0.43000 0.37020
f 52 53 54
v 0.34255 0.43000 0.34020
v -0.34255 0.43000 0.34020
v -0.34255 0.43000 0.37020
f 55 56 57
v 0.34255 0.43000 0.34020
v -0.34255 0.43000 0.37020
v 0.34255 0.43000 0.37020
f 58 59 60
v 0.34255 -0.43000 0.34020
v 0.34255 0.43000 0.34020
v 0.34255 0.43000 0.37020
f 61 62 63
v 0.34255 -0.43000 0.34020
v 0.34255 0.43000 0.37020
v 0.34255 -0.43000 0.37020
f 64 65 66
v -0.34255 0.43000 0.34020
v -0.34255 -0.43000 0.34020
v -0.34255 -0.43000 0.37020
f 67 68 69
v -0.34255 0.43000 0.34020
v -0.34255 -0.43000 0.37020
v -0.34255 0.43000 0.37020
f 70 71 72
v -0.32255 0.44500 0.19510
v -0.32255 0.49500 0.19510
v 0.32255 0.49500 0.19510
f 73 74 75
v -0.32255 0.44500 0.19510
v 0.32255 0.49500 0.19510
v 0.32255 0.44500 0.19510
f 76 77 78
v -0.32255 0.44500 0.25510
v 0.32255 0.44500 0.25510
v 0.32255 0.49500 0.25510
f 79 80 81
v -0.32255 0.44500 0.25510
v 0.32255 0.49500 0.25510
v -0.32255 0.49500 0.25510
f 82 83 84
v -0.32255 0.44500 0.19510
v 0.32255 0.44500 0.19510
v 0.32255 0.44500 0.25510
f 85 86 87
v -0.32255 0.44500 0.19510
v 0.32255 0.44500 0.25510
v -0.32255 0.44500 0.25510
f 88 89 90
v 0.32255 0.49500 0.19510
v -0.32255 0.49500 0.19510
v -0.32255 0.49500 0.25510
f 91 92 93
v 0.32255 0.49500 0.19510
v -0.32255 0.49500 0.25510
v 0.32255 0.49500 0.25510
f 94 95 96
v 0.32255 0.44500 0.19510
v 0.32255 0.49500 0.19510
v 0.32255 0.49500 0.25510
f 97 98 99
v 0.32255 0.44500 0.19510
v 0.32255 0.49500 0.25510
v 0.32255 0.44500 0.25510
f 100 101 102
v -0.32255 0.49500 0.19510
v -0.32255 0.44500 0.19510
v -0.32255 0.44500 0.25510
f 103 104 105
v -0.32255 0.49500 0.19510
v -0.32255 0.44500 0.25510
v -0.32255 0.49500 0.25510
f 106 107 108
v -0.32255 -0.49500 0.19510
v -0.32255 -0.44500 0.19510
v 0.32255 -0.44500 0.19510
f 109 110 111
v -0.32255 -0.49500 0.19510
v 0.32255 -0.44500 0.19510
v 0.32255 -0.49500 0.19510
f 112 113 114
v -0.32255 -0.49500 0.25510
v 0.32255 -0.49500 0.25510
v 0.32255 -0.44500 0.25510
f 115 116 117
v -0.32255 -0.49500 0.25510
v 0.32255 -0.44500 0.25510
v -0.32255 -0.44500 0.25510
f 118 119 120
v -0.32255 -0.49500 0.19510
v 0.32255 -0.49500 0.19510
v 0.32255 -0.49500 0.25510
f 121 122 123
v -0.32255 -0.49500 0.19510
v 0.32255 -0.49500 0.25510
v -0.32255 -0.49500 0.25510
f 124 125 126
v 0.32255 -0.44500 0.19510
v -0.32255 -0.44500 0.19510
v -0.32255 -0.44500 0.25510
f 127 128 129
v 0.32255 -0.44500 0.19510
v -0.32255 -0.44500 0.25510
v 0.32255 -0.44500 0.25510
f 130 131 132
v 0.32255 -0.49500 0.19510
v 0.32255 -0.44500 0.19510
v 0.32255 -0.44500 0.25510
f 133 134 135
v 0.32255 -0.49500 0.19510
v 0.32255 -0.44500 0.25510
v 0.32255 -0.49500 0.25510
f 136 137 138
v -0.32255 -0.44500 0.19510
v -0.32255 -0.49500 0.19510
v -0.32255 -0.49500 0.25510
f 139 140 141
v -0.32255 -0.44500 0.19510
v -0.32255 -0.49500 0.25510
v -0.32255 -0.44500 0.25510
f 142 143 144
v -0.02000 -0.27000 0.37020
v -0.02000 -0.23000 0.37020
v 0.02000 -0.23000 0.37020
f 145 146 147
v -0.02000 -0.27000 0.37020
v 0.02000 -0.23000 0.37020
v 0.02000 -0.27000 0.37020
f 148 149 150
v -0.02000 -0.27000 0.90000
v 0.02000 -0.27000 0.90000
v 0.02000 -0.23000 0.90000
f 151 152 153
v -0.02000 -0.27000 0.90000
v 0.02000 -0.23000 0.90000
v -0.02000 -0.23000 0.90000
f 154 155 156
v -0.02000 -0.27000 0.37020
v 0.02000 -0.27000 0.37020
v 0.02000 -0.27000 0.90000
f 157 158 159
v -0.02000 -0.27000 0.37020
v 0.02000 -0.27000 0.90000
v -0.02000 -0.27000 0.90000
f 160 161 162
v 0.02000 -0.23000 0.37020
v -0.02000 -0.23000 0.37020
v -0.02000 -0.23000 0.90000
f 163 164 165
v 0.02000 -0.23000 0.37020
v -0.02000 -0.23000 0.90000
v 0.02000 -0.23000 0.90000
f 166 167 168
v 0.02000 -0.27000 0.37020
v 0.02000 -0.23000 0.37020
v 0.02000 -0.23000 0.90000
f 169 170 171
v 0.02000 -0.27000 0.37020
v 0.02000 -0.23000 0.90000
v 0.02000 -0.27000 0.90000
f 172 173 174
v -0.02000 -0.23000 0.37020
v -0.02000 -0.27000 0.37020
v -0.02000 -0.27000 0.90000
f 175 176 177
v -0.02000 -0.23000 0.37020
v -0.02000 -0.27000 0.90000
v -0.02000 -0.23000 0.90000
f 178 179 180
v -0.08500 0.40500 0.53500
v -0.08500 0.43500 0.53500
v 0.08500 0.43500 0.53500
f 181 182 183
v -0.08500 0.40500 0.53500
v 0.08500 0.43500 0.53500
v 0.08500 0.40500 0.53500
f 184 185 186
v -0.08500 0.40500 0.56500
v 0.08500 0.40500 0.56500
v 0.08500 0.43500 0.56500
f 187 188 189
v -0.08500 0.40500 0.56500
v 0.08500 0.43500 0.56500
v -0.08500 0.43500 0.56500
f 190 191 192
v -0.08500 0.40500 0.53500
v 0.08500 0.40500 0.53500
v 0.08500 0.40500 0.56500
f 193 194 195
v -0.08500 0.40500 0.53500
v 0.08500 0.40500 0.56500
v -0.08500 0.40500 0.56500
f 196 197 198
v 0.08500 0.43500 0.53500
v -0.08500 0.43500 0.53500
v -0.08500 0.43500 0.56500
f 199 200 201
v 0.08500 0.43500 0.53500
v -0.08500 0.43500 0.56500
v 0.08500 0.43500 0.56500
f 202 203 204
v 0.08500 0.40500 0.53500
v 0.08500 0.43500 0.53500
v 0.08500 0.43500 0.56500
f 205 206 207
v 0.08500 0.40500 0.53500
v 0.08500 0.43500 0.56500
v 0.08500 0.40500 0.56500
f 208 209 210
v -0.08500 0.43500 0.53500
v -0.08500 0.40500 0.53500
v -0.08500 0.40500 0.56500
f 211 212 213
v -0.08500 0.43500 0.53500
v -0.08500 0.40500 0.56500
v -0.08500 0.43500 0.56500
f 214 215 216
v -0.34255 -0.09090 0.16510
v -0.22825 -0.09090 0.16510
v -0.22825 -0.09653 0.20783
f 217 218 219
v -0.34255 -0.09090 0.16510
v -0.22825 -0.09653 0.20783
v -0.34255 -0.09653 0.20783
f 220 221 222
v -0.34255 -0.25600 0.16510
v -0.34255 -0.09090 0.16510
v -0.34255 -0.09653 0.20783
f 223 224 225
v -0.22825 -0.25600 0.16510
v -0.22825 -0.09653 0.20783
v -0.22825 -0.09090 0.16510
f 226 227 228
v -0.34255 -0.09653 0.20783
v -0.22825 -0.09653 0.20783
v -0.22825 -0.11302 0.24765
f 229 230 231
v -0.34255 -0.09653 0.20783
v -0.22825 -0.11302 0.24765
v -0.34255 -0.11302 0.24765
f 232 233 234
v -0.34255 -0.25600 0.16510
v -0.34255 -0.09653 0.20783
v -0.34255 -0.11302 0.24765
f 235 236 237
v -0.22825 -0.25600 0.16510
v -0.22825 -0.11302 0.24765
v -0.22825 -0.09653 0.20783
f 238 239 240
v -0.34255 -0.11302 0.24765
v -0.22825 -0.11302 0.24765
v -0.22825 -0.13926 0.28184
f 241 242 243
v -0.34255 -0.11302 0.24765
v -0.22825 -0.13926 0.28184
v -0.34255 -0.13926 0.28184
f 244 245 246
v -0.34255 -0.25600 0.16510
v -0.34255 -0.11302 0.24765
v -0.34255 -0.13926 0.28184
f 247 248 249
v -0.22825 -0.25600 0.16510
v -0.22825 -0.13926 0.28184
v -0.22825 -0.11302 0.24765
f 250 251 252
v -0.34255 -0.13926 0.28184
v -0.22825 -0.13926 0.28184
v -0.22825 -0.17345 0.30808
f 253 254 255
v -0.34255 -0.13926 0.28184
v -0.22825 -0.17345 0.30808
v -0.34255 -0.17345 0.30808
f 256 257 258
v -0.34255 -0.25600 0.16510
v -0.34255 -0.13926 0.28184
v -0.34255 -0.17345 0.30808
f 259 260 261
v -0.22825 -0.25600 0.16510
v -0.22825 -0.17345 0.30808
v -0.22825 -0.13926 0.28184
f 262 263 264
v -0.34255 -0.17345 0.30808
v -0.22825 -0.17345 0.30808
v -0.22825 -0.21327 0.32457
f 265 266 267
v -0.34255 -0.17345 0.30808
v -0.22825 -0.21327 0.32457
v -0.34255 -0.21327 0.32457
f 268 269 270
v -0.34255 -0.25600 0.16510
v -0.34255 -0.17345 0.30808
v -0.34255 -0.21327 0.32457
f 271 272 273
v -0.22825 -0.25600 0.16510
v -0.22825 -0.21327 0.32457
v -0.22825 -0.17345 0.30808
f 274 275 276
v -0.34255 -0.21327 0.32457
v -0.22825 -0.21327 0.32457
v -0.22825 -0.25600 0.33020
f 277 278 279
v -0.34255 -0.21327 0.32457
v -0.22825 -0.25600 0.33020
v -0.34255 -0.25600 0.33020
f 280 281 282
v -0.34255 -0.25600 0.16510
v -0.34255 -0.21327 0.32457
v -0.34255 -0.25600 0.33020
f 283 284 285
v -0.22825 -0.25600 0.16510
v -0.22825 -0.25600 0.33020
v -0.22825 -0.21327 0.32457
f 286 287 288
v -0.34255 -0.25600 0.33020
v -0.22825 -0.25600 0.33020
v -0.22825 -0.29873 0.32457
f 289 290 291
v -0.34255 -0.25600 0.33020
v -0.22825 -0.29873 0.32457
v -0.34255 -0.29873 0.32457
f 292 293 294
v -0.34255 -0.25600 0.16510
v -0.34255 -0.25600 0.33020
v -0.34255 -0.29873 0.32457
f 295 296 297
v -0.22825 -0.25600 0.16510
v -0.22825 -0.29873 0.32457
v -0.22825 -0.25600 0.33020
f 298 299 300
v -0.34255 -0.29873 0.32457
v -0.22825 -0.29873 0.32457
v -0.22825 -0.33855 0.30808
f 301 302 303
v -0.34255 -0.29873 0.32457
v -0.22825 -0.33855 0.30808
v -0.34255 -0.33855 0.30808
f 304 305 306
v -0.34255 -0.25600 0.16510
v -0.34255 -0.29873 0.32457
v -0.34255 -0.33855 0.30808
f 307 308 309
v -0.22825 -0.25600 0.16510
v -0.22825 -0.33855 0.30808
v -0.22825 -0.29873 0.32457
f 310 311 312
v -0.34255 -0.33855 0.30808
v -0.22825 -0.33855 0.30808
v -0.22825 -0.37274 0.28184
f 313 314 315
v -0.34255 -0.33855 0.30808
v -0.22825 -0.37274 0.28184
v -0.34255 -0.37274 0.28184
f 316 317 318
v -0.34255 -0.25600 0.16510
v -0.34255 -0.33855 0.30808
v -0.34255 -0.37274 0.28184
f 319 320 321
v -0.22825 -0.25600 0.16510
v -0.22825 -0.37274 0.28184
v -0.22825 -0.33855 0.30808
f 322 323 324
v -0.34255 -0.37274 0.28184
v -0.22825 -0.37274 0.28184
v -0.22825 -0.39898 0.24765
f 325 326 327
v -0.34255 -0.37274 0.28184
v -0.22825 -0.39898 0.24765
v -0.34255 -0.39898 0.24765
f 328 329 330
v -0.34255 -0.25600 0.16510
v -0.34255 -0.37274 0.28184
v -0.34255 -0.39898 0.24765
f 331 332 333
v -0.22825 -0.25600 0.16510
v -0.22825 -0.39898 0.24765
v -0.22825 -0.37274 0.28184
f 334 335 336
v -0.34255 -0.39898 0.24765
v -0.22825 -0.39898 0.24765
v -0.22825 -0.41547 0.20783
f 337 338 339
v -0.34255 -0.39898 0.24765
v -0.22825 -0.41547 0.20783
v -0.34255 -0.41547 0.20783
f 340 341 342
v -0.34255 -0.25600 0.16510
v -0.34255 -0.39898 0.24765
v -0.34255 -0.41547 0.20783
f 343 344 345
v -0.22825 -0.25600 0.16510
v -0.22825 -0.41547 0.20783
v -0.22825 -0.39898 0.24765
f 346 347 348
v -0.34255 -0.41547 0.20783
v -0.22825 -0.41547 0.20783
v -0.22825 -0.42110 0.16510
f 349 350 351
v -0.34255 -0.41547 0.20783
v -0.22825 -0.42110 0.16510
v -0.34255 -0.42110 0.16510
f 352 353 354
v -0.34255 -0.25600 0.16510
v -0.34255 -0.41547 0.20783
v -0.34255 -0.42110 0.16510
f 355 356 357
v -0.22825 -0.25600 0.16510
v -0.22825 -0.42110 0.16510
v -0.22825 -0.41547 0.20783
f 358 359 360
v -0.34255 -0.42110 0.16510
v -0.22825 -0.42110 0.16510
v -0.22825 -0.41547 0.12237
f 361 362 363
v -0.34255 -0.42110 0.16510
v -0.22825 -0.41547 0.12237
v -0.34255 -0.41547 0.12237
f 364 365 366
v -0.34255 -0.25600 0.16510
v -0.34255 -0.42110 0.16510
v -0.34255 -0.41547 0.12237
f 367 368 369
v -0.22825 -0.25600 0.16510
v -0.22825 -0.41547 0.12237
v -0.22825 -0.42110 0.16510
f 370 371 372
v -0.34255 -0.41547 0.12237
v -0.22825 -0.41547 0.12237
v -0.22825 -0.39898 0.08255
f 373 374 375
v -0.34255 -0.41547 0.12237
v -0.22825 -0.39898 0.08255
v -0.34255 -0.39898 0.08255
f 376 377 378
v -0.34255 -0.25600 0.16510
v -0.34255 -0.41547 0.12237
v -0.34255 -0.39898 0.08255
f 379 380 381
v -0.22825 -0.25600 0.16510
v -0.22825 -0.39898 0.08255
v -0.22825 -0.41547 0.12237
f 382 383 384
v -0.34255 -0.39898 0.08255
v -0.22825 -0.39898 0.08255
v -0.22825 -0.37274 0.04836
f 385 386 387
v -0.34255 -0.39898 0.08255
v -0.22825 -0.37274 0.04836
v -0.34255 -0.37274 0.04836
f 388 389 390
v -0.34255 -0.25600 0.16510
v -0.34255 -0.39898 0.08255
v -0.34255 -0.37274 0.04836
f 391 392 393
v -0.22825 -0.25600 0.16510
v -0.22825 -0.37274 0.04836
v -0.22825 -0.39898 0.08255
f 394 395 396
v -0.34255 -0.37274 0.04836
v -0.22825 -0.37274 0.04836
v -0.22825 -0.33855 0.02212
f 397 398 399
v -0.34255 -0.37274 0.04836
v -0.22825 -0.33855 0.02212
v -0.34255 -0.33855 0.02212
f 400 401 402
v -0.34255 -0.25600 0.16510
v -0.34255 -0.37274 0.04836
v -0.34255 -0.33855 0.02212
f 403 404 405
v -0.22825 -0.25600 0.16510
v -0.22825 -0.33855 0.02212
v -0.22825 -0.37274 0.04836
f 406 407 408
v -0.34255 -0.33855 0.02212
v -0.22825 -0.33855 0.02212
v -0.22825 -0.29873 0.00563
f 409 410 411
v -0.34255 -0.33855 0.02212
v -0.22825 -0.29873 0.00563
v -0.34255 -0.29873 0.00563
f 412 413 414
v -0.34255 -0.25600 0.16510
v -0.34255 -0.33855 0.02212
v -0.34255 -0.29873 0.00563
f 415 416 417
v -0.22825 -0.25600 0.16510
v -0.22825 -0.29873 0.00563
v -0.22825 -0.33855 0.02212
f 418 419 420
v -0.34255 -0.29873 0.00563
v -0.22825 -0.29873 0.00563
v -0.22825 -0.25600 0.00000
f 421 422 423
v -0.34255 -0.29873 0.00563
v -0.22825 -0.25600 0.00000
v -0.34255 -0.25600 0.00000
f 424 425 426
v -0.34255 -0.25600 0.16510
v -0.34255 -0.29873 0.00563
v -0.34255 -0.25600 0.00000
f 427 428 429
v -0.22825 -0.25600 0.16510
v -0.22825 -0.25600 0.00000
v -0.22825 -0.29873 0.00563
f 430 431 432
v -0.34255 -0.25600 0.00000
v -0.22825 -0.25600 0.00000
v -0.22825 -0.21327 0.00563
f 433 434 435
v -0.34255 -0.25600 0.00000
v -0.22825 -0.21327 0.00563
v -0.34255 -0.21327 0.00563
f 436 437 438
v -0.34255 -0.25600 0.16510
v -0.34255 -0.25600 0.00000
v -0.34255 -0.21327 0.00563
f 439 440 441
v -0.22825 -0.25600 0.16510
v -0.22825 -0.21327 0.00563
v -0.22825 -0.25600 0.00000
f 442 443 444
v -0.34255 -0.21327 0.00563
v -0.22825 -0.21327 0.00563
v -0.22825 -0.17345 0.02212
f 445 446 447
v -0.34255 -0.21327 0.00563
v -0.22825 -0.17345 0.02212
v -0.34255 -0.17345 0.02212
f 448 449 450
v -0.34255 -0.25600 0.16510
v -0.34255 -0.21327 0.00563
v -0.34255 -0.17345 0.02212
f 451 452 453
v -0.22825 -0.25600 0.16510
v -0.22825 -0.17345 0.02212
v -0.22825 -0.21327 0.00563
f 454 455 456
v -0.34255 -0.17345 0.02212
v -0.22825 -0.17345 0.02212
v -0.22825 -0.13926 0.04836
f 457 458 459
v -0.34255 -0.17345 0.02212
v -0.22825 -0.13926 0.04836
v -0.34255 -0.13926 0.04836
f 460 461 462
v -0.34255 -0.25600 0.16510
v -0.34255 -0.17345 0.02212
v -0.34255 -0.13926 0.04836
f 463 464 465
v -0.22825 -0.25600 0.16510
v -0.22825 -0.13926 0.04836
v -0.22825 -0.17345 0.02212
f 466 467 468
v -0.34255 -0.13926 0.04836
v -0.22825 -0.13926 0.04836
v -0.22825 -0.11302 0.08255
f 469 470 471
v -0.34255 -0.13926 0.04836
v -0.22825 -0.11302 0.08255
v -0.34255 -0.11302 0.08255
f 472 473 474
v -0.34255 -0.25600 0.16510
v -0.34255 -0.13926 0.04836
v -0.34255 -0.11302 0.08255
f 475 476 477
v -0.22825 -0.25600 0.16510
v -0.22825 -0.11302 0.08255
v -0.22825 -0.13926 0.04836
f 478 479 480
v -0.34255 -0.11302 0.08255
v -0.22825 -0.11302 0.08255
v -0.22825 -0.09653 0.12237
f 481 482 483
v -0.34255 -0.11302 0.08255
v -0.22825 -0.09653 0.12237
v -0.34255 -0.09653 0.12237
f 484 485 486
v -0.34255 -0.25600 0.16510
v -0.34255 -0.11302 0.08255
v -0.34255 -0.09653 0.12237
f 487 488 489
v -0.22825 -0.25600 0.16510
v -0.22825 -0.09653 0.12237
v -0.22825 -0.11302 0.08255
f 490 491 492
v -0.34255 -0.09653 0.12237
v -0.22825 -0.09653 0.12237
v -0.22825 -0.09090 0.16510
f 493 494 495
v -0.34255 -0.09653 0.12237
v -0.22825 -0.09090 0.16510
v -0.34255 -0.09090 0.16510
f 496 497 498
v -0.34255 -0.25600 0.16510
v -0.34255 -0.09653 0.12237
v -0.34255 -0.09090 0.16510
f 499 500 501
v -0.22825 -0.25600 0.16510
v -0.22825 -0.09090 0.16510
v -0.22825 -0.09653 0.12237
f 502 503 504
v -0.34255 0.42110 0.16510
v -0.22825 0.42110 0.16510
v -0.22825 0.41547 0.20783
f 505 506 507
v -0.34255 0.42110 0.16510
v -0.22825 0.41547 0.20783
v -0.34255 0.41547 0.20783
f 508 509 510
v -0.34255 0.25600 0.16510
v -0.34255 0.42110 0.16510
v -0.34255 0.41547 0.20783
f 511 512 513
v -0.22825 0.25600 0.16510
v -0.22825 0.41547 0.20783
v -0.22825 0.42110 0.16510
f 514 515 516
v -0.34255 0.41547 0.20783
v -0.22825 0.41547 0.20783
v -0.22825 0.39898 0.24765
f 517 518 519
v -0.34255 0.41547 0.20783
v -0.22825 0.39898 0.24765
v -0.34255 0.39898 0.24765
f 520 521 522
v -0.34255 0.25600 0.16510
v -0.34255 0.41547 0.20783
v -0.34255 0.39898 0.24765
f 523 524 525
v -0.22825 0.25600 0.16510
v -0.22825 0.39898 0.24765
v -0.22825 0.41547 0.20783
f 526 527 528
v -0.34255 0.39898 0.24765
v -0.22825 0.39898 0.24765
v -0.22825 0.37274 0.28184
f 529 530 531
v -0.34255 0.39898 0.24765
v -0.22825 0.37274 0.28184
v -0.34255 0.37274 0.28184
f 532 533 534
v -0.34255 0.25600 0.16510
v -0.34255 0.39898 0.24765
v -0.34255 0.37274 0.28184
f 535 536 537
v -0.22825 0.25600 0.16510
v -0.22825 0.37274 0.28184
v -0.22825 0.39898 0.24765
f 538 539 540
v -0.34255 0.37274 0.28184
v -0.22825 0.37274 0.28184
v -0.22825 0.33855 0.30808
f 541 542 543
v -0.34255 0.37274 0.28184
v -0.22825 0.33855 0.30808
v -0.34255 0.33855 0.30808
f 544 545 546
v -0.34255 0.25600 0.16510
v -0.34255 0.37274 0.28184
v -0.34255 0.33855 0.30808
f 547 548 549
v -0.22825 0.25600 0.16510
v -0.22825 0.33855 0.30808
v -0.22825 0.37274 0.28184
f 550 551 552
v -0.34255 0.33855 0.30808
v -0.22825 0.33855 0.30808
v -0.22825 0.29873 0.32457
f 553 554 555
v -0.34255 0.33855 0.30808
v -0.22825 0.29873 0.32457
v -0.34255 0.29873 0.32457
f 556 557 558
v -0.34255 0.25600 0.16510
v -0.34255 0.33855 0.30808
v -0.34255 0.29873 0.32457
f 559 560 561
v -0.22825 0.25600 0.16510
v -0.22825 0.29873 0.32457
v -0.22825 0.33855 0.30808
f 562 563 564
v -0.34255 0.29873 0.32457
v -0.22825 0.29873 0.32457
v -0.22825 0.25600 0.33020
f 565 566 567
v -0.34255 0.29873 0.32457
v -0.22825 0.25600 0.33020
v -0.34255 0.25600 0.33020
f 568 569 570
v -0.34255 0.25600 0.16510
v -0.34255 0.29873 0.32457
v -0.34255 0.25600 0.33020
f 571 572 573
v -0.22825 0.25600 0.16510
v -0.22825 0.25600 0.33020
v -0.22825 0.29873 0.32457
f 574 575 576
v -0.34255 0.25600 0.33020
v -0.22825 0.25600 0.33020
v -0.22825 0.21327 0.32457
f 577 578 579
v -0.34255 0.25600 0.33020
v -0.22825 0.21327 0.32457
v -0.34255 0.21327 0.32457
f 580 581 582
v -0.34255 0.25600 0.16510
v -0.34255 0.25600 0.33020
v -0.34255 0.21327 0.32457
f 583 584 585
v -0.22825 0.25600 0.16510
v -0.22825 0.21327 0.32457
v -0.22825 0.25600 0.33020
f 586 587 588
v -0.34255 0.21327 0.32457
v -0.22825 0.21327 0.32457
v -0.22825 0.17345 0.30808
f 589 590 591
v -0.34255 0.21327 0.32457
v -0.22825 0.17345 0.30808
v -0.34255 0.17345 0.30808
f 592 593 594
v -0.34255 0.25600 0.16510
v -0.34255 0.21327 0.32457
v -0.34255 0.17345 0.30808
f 595 596 597
v -0.22825 0.25600 0.16510
v -0.22825 0.17345 0.30808
v -0.22825 0.21327 0.32457
f 598 599 600
v -0.34255 0.17345 0.30808
v -0.22825 0.17345 0.30808
v -0.22825 0.13926 0.28184
f 601 602 603
v -0.34255 0.17345 0.30808
v -0.22825 0.13926 0.28184
v -0.34255 0.13926 0.28184
f 604 605 606
v -0.34255 0.25600 0.16510
v -0.34255 0.17345 0.30808
v -0.34255 0.13926 0.28184
f 607 608 609
v -0.22825 0.25600 0.16510
v -0.22825 0.13926 0.28184
v -0.22825 0.17345 0.30808
f 610 611 612
v -0.34255 0.13926 0.28184
v -0.22825 0.13926 0.28184
v -0.22825 0.11302 0.24765
f 613 614 615
v -0.34255 0.13926 0.28184
v -0.22825 0.11302 0.24765
v -0.34255 0.11302 0.24765
f 616 617 618
v -0.34255 0.25600 0.16510
v -0.34255 0.13926 0.28184
v -0.34255 0.11302 0.24765
f 619 620 621
v -0.22825 0.25600 0.16510
v -0.22825 0.11302 0.24765
v -0.22825 0.13926 0.28184
f 622 623 624
v -0.34255 0.11302 0.24765
v -0.22825 0.11302 0.24765
v -0.22825 0.09653 0.20783
f 625 626 627
v -0.34255 0.11302 0.24765
v -0.22825 0.09653 0.20783
v -0.34255 0.09653 0.20783
f 628 629 630
v -0.34255 0.25600 0.16510
v -0.34255 0.11302 0.24765
v -0.34255 0.09653 0.20783
f 631 632 633
v -0.22825 0.25600 0.16510
v -0.22825 0.09653 0.20783
v -0.22825 0.11302 0.24765
f 634 635 636
v -0.34255 0.09653 0.20783
v -0.22825 0.09653 0.20783
v -0.22825 0.09090 0.16510
f 637 638 639
v -0.34255 0.09653 0.20783
v -0.22825 0.09090 0.16510
v -0.34255 0.09090 0.16510
f 640 641 642
v -0.34255 0.25600 0.16510
v -0.34255 0.09653 0.20783
v -0.34255 0.09090 0.16510
f 643 644 645
v -0.22825 0.25600 0.16510
v -0.22825 0.09090 0.16510
v -0.22825 0.09653 0.20783
f 646 647 648
v -0.34255 0.09090 0.16510
v -0.22825 0.09090 0.16510
v -0.22825 0.09653 0.12237
f 649 650 651
v -0.34255 0.09090 0.16510
v -0.22825 0.09653 0.12237
v -0.34255 0.09653 0.12237
f 652 653 654
v -0.34255 0.25600 0.16510
v -0.34255 0.09090 0.16510
v -0.34255 0.09653 0.12237
f 655 656 657
v -0.22825 0.25600 0.16510
v -0.22825 0.09653 0.12237
v -0.22825 0.09090 0.16510
f 658 659 660
v -0.34255 0.09653 0.12237
v -0.22825 0.09653 0.12237
v -0.22825 0.11302 0.08255
f 661 662 663
v -0.34255 0.09653 0.12237
v -0.22825 0.11302 0.08255
v -0.34255 0.11302 0.08255
f 664 665 666
v -0.34255 0.25600 0.16510
v -0.34255 0.09653 0.12237
v -0.34255 0.11302 0.08255
f 667 668 669
v -0.22825 0.25600 0.16510
v -0.22825 0.11302 0.08255
v -0.22825 0.09653 0.12237
f 670 671 672
v -0.34255 0.11302 0.08255
v -0.22825 0.11302 0.08255
v -0.22825 0.13926 0.04836
f 673 674 675
v -0.34255 0.11302 0.08255
v -0.22825 0.13926 0.04836
v -0.34255 0.13926 0.04836
f 676 677 678
v -0.34255 0.25600 0.16510
v -0.34255 0.11302 0.08255
v -0.34255 0.13926 0.04836
f 679 680 681
v -0.22825 0.25600 0.16510
v -0.22825 0.13926 0.04836
v -0.22825 0.11302 0.08255
f 682 683 684
v -0.34255 0.13926 0.04836
v -0.22825 0.13926 0.04836
v -0.22825 0.17345 0.02212
f 685 686 687
v -0.34255 0.13926 0.04836
v -0.22825 0.17345 0.02212
v -0.34255 0.17345 0.02212
f 688 689 690
v -0.34255 0.25600 0.16510
v -0.34255 0.13926 0.04836
v -0.34255 0.17345 0.02212
f 691 692 693
v -0.22825 0.25600 0.16510
v -0.22825 0.17345 0.02212
v -0.22825 0.13926 0.04836
f 694 695 696
v -0.34255 0.17345 0.02212
v -0.22825 0.17345 0.02212
v -0.22825 0.21327 0.00563
f 697 698 699
v -0.34255 0.17345 0.02212
v -0.22825 0.21327 0.00563
v -0.34255 0.21327 0.00563
f 700 701 702
v -0.34255 0.25600 0.16510
v -0.34255 0.17345 0.02212
v -0.34255 0.21327 0.00563
f 703 704 705
v -0.22825 0.25600 0.16510
v -0.22825 0.21327 0.00563
v -0.22825 0.17345 0.02212
f 706 707 708
v -0.34255 0.21327 0.00563
v -0.22825 0.21327 0.00563
v -0.22825 0.25600 0.00000
f 709 710 711
v -0.34255 0.21327 0.00563
v -0.22825 0.25600 0.00000
v -0.34255 0.25600 0.00000
f 712 713 714
v -0.34255 0.25600 0.16510
v -0.34255 0.21327 0.00563
v -0.34255 0.25600 0.00000
f 715 716 717
v -0.22825 0.25600 0.16510
v -0.22825 0.25600 0.00000
v -0.22825 0.21327 0.00563
f 718 719 720
v -0.34255 0.25600 0.00000
v -0.22825 0.25600 0.00000
v -0.22825 0.29873 0.00563
f 721 722 723
v -0.34255 0.25600 0.00000
v -0.22825 0.29873 0.00563
v -0.34255 0.29873 0.00563
f 724 725 726
v -0.34255 0.25600 0.16510
v -0.34255 0.25600 0.00000
v -0.34255 0.29873 0.00563
f 727 728 729
v -0.22825 0.25600 0.16510
v -0.22825 0.29873 0.00563
v -0.22825 0.25600 0.00000
f 730 731 732
v -0.34255 0.29873 0.00563
v -0.22825 0.29873 0.00563
v -0.22825 0.33855 0.02212
f 733 734 735
v -0.34255 0.29873 0.00563
v -0.22825 0.33855 0.02212
v -0.34255 0.33855 0.02212
f 736 737 738
v -0.34255 0.25600 0.16510
v -0.34255 0.29873 0.00563
v -0.34255 0.33855 0.02212
f 739 740 741
v -0.22825 0.25600 0.16510
v -0.22825 0.33855 0.02212
v -0.22825 0.29873 0.00563
f 742 743 744
v -0.34255 0.33855 0.02212
v -0.22825 0.33855 0.02212
v -0.22825 0.37274 0.04836
f 745 746 747
v -0.34255 0.33855 0.02212
v -0.22825 0.37274 0.04836
v -0.34255 0.37274 0.04836
f 748 749 750
v -0.34255 0.25600 0.16510
v -0.34255 0.33855 0.02212
v -0.34255 0.37274 0.04836
f 751 752 753
v -0.22825 0.25600 0.16510
v -0.22825 0.37274 0.04836
v -0.22825 0.33855 0.02212
f 754 755 756
v -0.34255 0.37274 0.04836
v -0.22825 0.37274 0.04836
v -0.22825 0.39898 0.08255
f 757 758 759
v -0.34255 0.37274 0.04836
v -0.22825 0.39898 0.08255
v -0.34255 0.39898 0.08255
f 760 761 762
v -0.34255 0.25600 0.16510
v -0.34255 0.37274 0.04836
v -0.34255 0.39898 0.08255
f 763 764 765
v -0.22825 0.25600 0.16510
v -0.22825 0.39898 0.08255
v -0.22825 0.37274 0.04836
f 766 767 768
v -0.34255 0.39898 0.08255
v -0.22825 0.39898 0.08255
v -0.22825 0.41547 0.12237
f 769 770 771
v -0.34255 0.39898 0.08255
v -0.22825 0.41547 0.12237
v -0.34255 0.41547 0.12237
f 772 773 774
v -0.34255 0.25600 0.16510
v -0.34255 0.39898 0.08255
v -0.34255 0.41547 0.12237
f 775 776 777
v -0.22825 0.25600 0.16510
v -0.22825 0.41547 0.12237
v -0.22825 0.39898 0.08255
f 778 779 780
v -0.34255 0.41547 0.12237
v -0.22825 0.41547 0.12237
v -0.22825 0.42110 0.16510
f 781 782 783
v -0.34255 0.41547 0.12237
v -0.22825 0.42110 0.16510
v -0.34255 0.42110 0.16510
f 784 785 786
v -0.34255 0.25600 0.16510
v -0.34255 0.41547 0.12237
v -0.34255 0.42110 0.16510
f 787 788 789
v -0.22825 0.25600 0.16510
v -0.22825 0.42110 0.16510
v -0.22825 0.41547 0.12237
f 790 791 792
v 0.22825 -0.09090 0.16510
v 0.34255 -0.09090 0.16510
v 0.34255 -0.09653 0.20783
f 793 794 795
v 0.22825 -0.09090 0.16510
v 0.34255 -0.09653 0.20783
v 0.22825 -0.09653 0.20783
f 796 797 798
v 0.22825 -0.25600 0.16510
v 0.22825 -0.09090 0.16510
v 0.22825 -0.09653 0.20783
f 799 800 801
v 0.34255 -0.25600 0.16510
v 0.34255 -0.09653 0.20783
v 0.34255 -0.09090 0.16510
f 802 803 804
v 0.22825 -0.09653 0.20783
v 0.34255 -0.09653 0.20783
v 0.34255 -0.11302 0.24765
f 805 806 807
v 0.22825 -0.09653 0.20783
v 0.34255 -0.11302 0.24765
v 0.22825 -0.11302 0.24765
f 808 809 810
v 0.22825 -0.25600 0.16510
v 0.22825 -0.09653 0.20783
v 0.22825 -0.11302 0.24765
f 811 812 813
v 0.34255 -0.25600 0.16510
v 0.34255 -0.11302 0.24765
v 0.34255 -0.09653 0.20783
f 814 815 816
v 0.22825 -0.11302 0.24765
v 0.34255 -0.11302 0.24765
v 0.34255 -0.13926 0.28184
f 817 818 819
v 0.22825 -0.11302 0.24765
v 0.34255 -0.13926 0.28184
v 0.22825 -0.13926 0.28184
f 820 821 822
v 0.22825 -0.25600 0.16510
v 0.22825 -0.11302 0.24765
v 0.22825 -0.13926 0.28184
f 823 824 825
v 0.34255 -0.25600 0.16510
v 0.34255 -0.13926 0.28184
v 0.34255 -0.11302 0.24765
f 826 827 828
v 0.22825 -0.13926 0.28184
v 0.34255 -0.13926 0.28184
v 0.34255 -0.17345 0.30808
f 829 830 831
v 0.22825 -0.13926 0.28184
v 0.34255 -0.17345 0.30808
v 0.22825 -0.17345 0.30808
f 832 833 834
v 0.22825 -0.25600 0.16510
v 0.22825 -0.13926 0.28184
v 0.22825 -0.17345 0.30808
f 835 836 837
v 0.34255 -0.25600 0.16510
v 0.34255 -0.17345 0.30808
v 0.34255 -0.13926 0.28184
f 838 839 840
v 0.22825 -0.17345 0.30808
v 0.34255 -0.17345 0.30808
v 0.34255 -0.21327 0.32457
f 841 842 843
v 0.22825 -0.17345 0.30808
v 0.34255 -0.21327 0.32457
v 0.22825 -0.21327 0.32457
f 844 845 846
v 0.22825 -0.25600 0.16510
v 0.22825 -0.17345 0.30808
v 0.22825 -0.21327 0.32457
f 847 848 849
v 0.34255 -0.25600 0.16510
v 0.34255 -0.21327 0.32457
v 0.34255 -0.17345 0.30808
f 850 851 852
v 0.22825 -0.21327 0.32457
v 0.34255 -0.21327 0.32457
v 0.34255 -0.25600 0.33020
f 853 854 855
v 0.22825 -0.21327 0.32457
v 0.34255 -0.25600 0.33020
v 0.22825 -0.25600 0.33020
f 856 857 858
v 0.22825 -0.25600 0.16510
v 0.22825 -0.21327 0.32457
v 0.22825 -0.25600 0.33020
f 859 860 861
v 0.34255 -0.25600 0.16510
v 0.34255 -0.25600 0.33020
v 0.34255 -0.21327 0.32457
f 862 863 864
v 0.22825 -0.25600 0.33020
v 0.34255 -0.25600 0.33020
v 0.34255 -0.29873 0.32457
f 865 866 867
v 0.22825 -0.25600 0.33020
v 0.34255 -0.29873 0.32457
v 0.22825 -0.29873 0.32457
f 868 869 870
v 0.22825 -0.25600 0.16510
v 0.22825 -0.25600 0.33020
v 0.22825 -0.29873 0.32457
f 871 872 873
v 0.34255 -0.25600 0.16510
v 0.34255 -0.29873 0.32457
v 0.34255 -0.25600 0.33020
f 874 875 876
v 0.22825 -0.29873 0.32457
v 0.34255 -0.29873 0.32457
v 0.34255 -0.33855 0.30808
f 877 878 879
v 0.22825 -0.29873 0.32457
v 0.34255 -0.33855 0.30808
v 0.22825 -0.33855 0.30808
f 880 881 882
v 0.22825 -0.25600 0.16510
v 0.22825 -0.29873 0.32457
v 0.22825 -0.33855 0.30808
f 883 884 885
v 0.34255 -0.25600 0.16510
v 0.34255 -0.33855 0.30808
v 0.34255 -0.29873 0.32457
f 886 887 888
v 0.22825 -0.33855 0.30808
v 0.34255 -0.33855 0.30808
v 0.34255 -0.37274 0.28184
f 889 890 891
v 0.22825 -0.33855 0.30808
v 0.34255 -0.37274 0.28184
v 0.22825 -0.37274 0.28184
f 892 893 894
v 0.22825 -0.25600 0.16510
v 0.22825 -0.33855 0.30808
v 0.22825 -0.37274 0.28184
f 895 896 897
v 0.34255 -0.25600 0.16510
v 0.34255 -0.37274 0.28184
v 0.34255 -0.33855 0.30808
f 898 899 900
v 0.22825 -0.37274 0.28184
v 0.34255 -0.37274 0.28184
v 0.34255 -0.39898 0.24765
f 901 902 903
v 0.22825 -0.37274 0.28184
v 0.34255 -0.39898 0.24765
v 0.22825 -0.39898 0.24765
f 904 905 906
v 0.22825 -0.25600 0.16510
v 0.22825 -0.37274 0.28184
v 0.22825 -0.39898 0.24765
f 907 908 909
v 0.34255 -0.25600 0.16510
v 0.34255 -0.39898 0.24765
v 0.34255 -0.37274 0.28184
f 910 911 912
v 0.22825 -0.39898 0.24765
v 0.34255 -0.39898 0.24765
v 0.34255 -0.41547 0.20783
f 913 914 915
v 0.22825 -0.39898 0.24765
v 0.34255 -0.41547 0.20783
v 0.22825 -0.41547 0.20783
f 916 917 918
v 0.22825 -0.25600 0.16510
v 0.22825 -0.39898 0.24765
v 0.22825 -0.41547 0.20783
f 919 920 921
v 0.34255 -0.25600 0.16510
v 0.34255 -0.41547 0.20783
v 0.34255 -0.39898 0.24765
f 922 923 924
v 0.22825 -0.41547 0.20783
v 0.34255 -0.41547 0.20783
v 0.34255 -0.42110 0.16510
f 925 926 927
v 0.22825 -0.41547 0.20783
v 0.34255 -0.42110 0.16510
v 0.22825 -0.42110 0.16510
f 928 929 930
v 0.22825 -0.25600 0.16510
v 0.22825 -0.41547 0.20783
v 0.22825 -0.42110 0.16510
f 931 932 933
v 0.34255 -0.25600 0.16510
v 0.34255 -0.42110 0.16510
v 0.34255 -0.41547 0.20783
f 934 935 936
v 0.22825 -0.42110 0.16510
v 0.34255 -0.42110 0.16510
v 0.34255 -0.41547 0.12237
f 937 938 939
v 0.22825 -0.42110 0.16510
v 0.34255 -0.41547 0.12237
v 0.22825 -0.41547 0.12237
f 940 941 942
v 0.22825 -0.25600 0.16510
v 0.22825 -0.42110 0.16510
v 0.22825 -0.41547 0.12237
f 943 944 945
v 0.34255 -0.25600 0.16510
v 0.34255 -0.41547 0.12237
v 0.34255 -0.42110 0.16510
f 946 947 948
v 0.22825 -0.41547 0.12237
v 0.34255 -0.41547 0.12237
v 0.34255 -0.39898 0.08255
f 949 950 951
v 0.22825 -0.41547 0.12237
v 0.34255 -0.39898 0.08255
v 0.22825 -0.39898 0.08255
f 952 953 954
v 0.22825 -0.25600 0.16510
v 0.22825 -0.41547 0.12237
v 0.22825 -0.39898 0.08255
f 955 956 957
v 0.34255 -0.25600 0.16510
v 0.34255 -0.39898 0.08255
v 0.34255 -0.41547 0.12237
f 958 959 960
v 0.22825 -0.39898 0.08255
v 0.34255 -0.39898 0.08255
v 0.34255 -0.37274 0.04836
f 961 962 963
v 0.22825 -0.39898 0.08255
v 0.34255 -0.37274 0.04836
v 0.22825 -0.37274 0.04836
f 964 965 966
v 0.22825 -0.25600 0.16510
v 0.22825 -0.39898 0.08255
v 0.22825 -0.37274 0.04836
f 967 968 969
v 0.34255 -0.25600 0.16510
v 0.34255 -0.37274 0.04836
v 0.34255 -0.39898 0.08255
f 970 971 972
v 0.22825 -0.37274 0.04836
v 0.34255 -0.37274 0.04836
v 0.34255 -0.33855 0.02212
f 973 974 975
v 0.22825 -0.37274 0.04836
v 0.34255 -0.33855 0.02212
v 0.22825 -0.33855 0.02212
f 976 977 978
v 0.22825 -0.25600 0.16510
v 0.22825 -0.37274 0.04836
v 0.22825 -0.33855 0.02212
f 979 980 981
v 0.34255 -0.25600 0.16510
v 0.34255 -0.33855 0.02212
v 0.34255 -0.37274 0.04836
f 982 983 984
v 0.22825 -0.33855 0.02212
v 0.34255 -0.33855 0.02212
v 0.34255 -0.29873 0.00563
f 985 986 987
v 0.22825 -0.33855 0.02212
v 0.34255 -0.29873 0.00563
v 0.22825 -0.29873 0.00563
f 988 989 990
v 0.22825 -0.25600 0.16510
v 0.22825 -0.33855 0.02212
v 0.22825 -0.29873 0.00563
f 991 992 993
v 0.34255 -0.25600 0.16510
v 0.34255 -0.29873 0.00563
v 0.34255 -0.33855 0.02212
f 994 995 996
v 0.22825 -0.29873 0.00563
v 0.34255 -0.29873 0.00563
v 0.34255 -0.25600 0.00000
f 997 998 999
v 0.22825 -0.29873 0.00563
v 0.34255 -0.25600 0.00000
v 0.22825 -0.25600 0.00000
f 1000 1001 1002
v 0.22825 -0.25600 0.16510
v 0.22825 -0.29873 0.00563
v 0.22825 -0.25600 0.00000
f 1003 1004 1005
v 0.34255 -0.25600 0.16510
v 0.34255 -0.25600 0.00000
v 0.34255 -0.29873 0.00563
f 1006 1007 1008
v 0.22825 -0.25600 0.00000
v 0.34255 -0.25600 0.00000
v 0.34255 -0.21327 0.00563
f 1009 1010 1011
v 0.22825 -0.25600 0.00000
v 0.34255 -0.21327 0.00563
v 0.22825 -0.21327 0.00563
f 1012 1013 1014
v 0.22825 -0.25600 0.16510
v 0.22825 -0.25600 0.00000
v 0.22825 -0.21327 0.00563
f 1015 1016 1017
v 0.34255 -0.25600 0.16510
v 0.34255 -0.21327 0.00563
v 0.34255 -0.25600 0.00000
f 1018 1019 1020
v 0.22825 -0.21327 0.00563
v 0.34255 -0.21327 0.00563
v 0.34255 -0.17345 0.02212
f 1021 1022 1023
v 0.22825 -0.21327 0.00563
v 0.34255 -0.17345 0.02212
v 0.22825 -0.17345 0.02212
f 1024 1025 1026
v 0.22825 -0.25600 0.16510
v 0.22825 -0.21327 0.00563
v 0.22825 -0.17345 0.02212
f 1027 1028 1029
v 0.34255 -0.25600 0.16510
v 0.34255 -0.17345 0.02212
v 0.34255 -0.21327 0.00563
f 1030 1031 1032
v 0.22825 -0.17345 0.02212
v 0.34255 -0.17345 0.02212
v 0.34255 -0.13926 0.04836
f 1033 1034 1035
v 0.22825 -0.17345 0.02212
v 0.34255 -0.13926 0.04836
v 0.22825 -0.13926 0.04836
f 1036 1037 1038
v 0.22825 -0.25600 0.16510
v 0.22825 -0.17345 0.02212
v 0.22825 -0.13926 0.04836
f 1039 1040 1041
v 0.34255 -0.25600 0.16510
v 0.34255 -0.13926 0.04836
v 0.34255 -0.17345 0.02212
f 1042 1043 1044
v 0.22825 -0.13926 0.04836
v 0.34255 -0.13926 0.04836
v 0.34255 -0.11302 0.08255
f 1045 1046 1047
v 0.22825 -0.13926 0.04836
v 0.34255 -0.11302 0.08255
v 0.22825 -0.11302 0.08255
f 1048 1049 1050
v 0.22825 -0.25600 0.16510
v 0.22825 -0.13926 0.04836
v 0.22825 -0.11302 0.08255
f 1051 1052 1053
v 0.34255 -0.25600 0.16510
v 0.34255 -0.11302 0.08255
v 0.34255 -0.13926 0.04836
f 1054 1055 1056
v 0.22825 -0.11302 0.08255
v 0.34255 -0.11302 0.08255
v 0.34255 -0.09653 0.12237
f 1057 1058 1059
v 0.22825 -0.11302 0.08255
v 0.34255 -0.09653 0.12237
v 0.22825 -0.09653 0.12237
f 1060 1061 1062
v 0.22825 -0.25600 0.16510
v 0.22825 -0.11302 0.08255
v 0.22825 -0.09653 0.12237
f 1063 1064 1065
v 0.34255 -0.25600 0.16510
v 0.34255 -0.09653 0.12237
v 0.34255 -0.11302 0.08255
f 1066 1067 1068
v 0.22825 -0.09653 0.12237
v 0.34255 -0.09653 0.12237
v 0.34255 -0.09090 0.16510
f 1069 1070 1071
v 0.22825 -0.09653 0.12237
v 0.34255 -0.09090 0.16510
v 0.22825 -0.09090 0.16510
f 1072 1073 1074
v 0.22825 -0.25600 0.16510
v 0.22825 -0.09653 0.12237
v 0.22825 -0.09090 0.16510
f 1075 1076 1077
v 0.34255 -0.25600 0.16510
v 0.34255 -0.09090 0.16510
v 0.34255 -0.09653 0.12237
f 1078 1079 1080
v 0.22825 0.42110 0.16510
v 0.34255 0.42110 0.16510
v 0.34255 0.41547 0.20783
f 1081 1082 1083
v 0.22825 0.42110 0.16510
v 0.34255 0.41547 0.20783
v 0.22825 0.41547 0.20783
f 1084 1085 1086
v 0.22825 0.25600 0.16510
v 0.22825 0.42110 0.16510
v 0.22825 0.41547 0.20783
f 1087 1088 1089
v 0.34255 0.25600 0.16510
v 0.34255 0.41547 0.20783
v 0.34255 0.42110 0.16510
f 1090 1091 1092
v 0.22825 0.41547 0.20783
v 0.34255 0.41547 0.20783
v 0.34255 0.39898 0.24765
f 1093 1094 1095
v 0.22825 0.41547 0.20783
v 0.34255 0.39898 0.24765
v 0.22825 0.39898 0.24765
f 1096 1097 1098
v 0.22825 0.25600 0.16510
v 0.22825 0.41547 0.20783
v 0.22825 0.39898 0.24765
f 1099 1100 1101
v 0.34255 0.25600 0.16510
v 0.34255 0.39898 0.24765
v 0.34255 0.41547 0.20783
f 1102 1103 1104
v 0.22825 0.39898 0.24765
v 0.34255 0.39898 0.24765
v 0.34255 0.37274 0.28184
f 1105 1106 1107
v 0.22825 0.39898 0.24765
v 0.34255 0.37274 0.28184
v 0.22825 0.37274 0.28184
f 1108 1109 1110
v 0.22825 0.25600 0.16510
v 0.22825 0.39898 0.24765
v 0.22825 0.37274 0.28184
f 1111 1112 1113
v 0.34255 0.25600 0.16510
v 0.34255 0.37274 0.28184
v 0.34255 0.39898 0.24765
f 1114 1115 1116
v 0.22825 0.37274 0.28184
v 0.34255 0.37274 0.28184
v 0.34255 0.33855 0.30808
f 1117 1118 1119
v 0.22825 0.37274 0.28184
v 0.34255 0.33855 0.30808
v 0.22825 0.33855 0.30808
f 1120 1121 1122
v 0.22825 0.25600 0.16510
v 0.22825 0.37274 0.28184
v 0.22825 0.33855 0.30808
f 1123 1124 1125
v 0.34255 0.25600 0.16510
v 0.34255 0.33855 0.30808
v 0.34255 0.37274 0.28184
f 1126 1127 1128
v 0.22825 0.33855 0.30808
v 0.34255 0.33855 0.30808
v 0.34255 0.29873 0.32457
f 1129 1130 1131
v 0.22825 0.33855 0.30808
v 0.34255 0.29873 0.32457
v 0.22825 0.29873 0.32457
f 1132 1133 1134
v 0.22825 0.25600 0.16510
v 0.22825 0.33855 0.30808
v 0.22825 0.29873 0.32457
f 1135 1136 1137
v 0.34255 0.25600 0.16510
v 0.34255 0.29873 0.32457
v 0.34255 0.33855 0.30808
f 1138 1139 1140
v 0.22825 0.29873 0.32457
v 0.34255 0.29873 0.32457
v 0.34255 0.25600 0.33020
f 1141 1142 1143
v 0.22825 0.29873 0.32457
v 0.34255 0.25600 0.33020
v 0.22825 0.25600 0.33020
f 1144 1145 1146
v 0.22825 0.25600 0.16510
v 0.22825 0.29873 0.32457
v 0.22825 0.25600 0.33020
f 1147 1148 1149
v 0.34255 0.25600 0.16510
v 0.34255 0.25600 0.33020
v 0.34255 0.29873 0.32457
f 1150 1151 1152
v 0.22825 0.25600 0.33020
v 0.34255 0.25600 0.33020
v 0.34255 0.21327 0.32457
f 1153 1154 1155
v 0.22825 0.25600 0.33020
v 0.34255 0.21327 0.32457
v 0.22825 0.21327 0.32457
f 1156 1157 1158
v 0.22825 0.25600 0.16510
v 0.22825 0.25600 0.33020
v 0.22825 0.21327 0.32457
f 1159 1160 1161
v 0.34255 0.25600 0.16510
v 0.34255 0.21327 0.32457
v 0.34255 0.25600 0.33020
f 1162 1163 1164
v 0.22825 0.21327 0.32457
v 0.34255 0.21327 0.32457
v 0.34255 0.17345 0.30808
f 1165 1166 1167
v 0.22825 0.21327 0.32457
v 0.34255 0.17345 0.30808
v 0.22825 0.17345 0.30808
f 1168 1169 1170
v 0.22825 0.25600 0.16510
v 0.22825 0.21327 0.32457
v 0.22825 0.17345 0.30808
f 1171 1172 1173
v 0.34255 0.25600 0.16510
v 0.34255 0.17345 0.30808
v 0.34255 0.21327 0.32457
f 1174 1175 1176
v 0.22825 0.17345 0.30808
v 0.34255 0.17345 0.30808
v 0.34255 0.13926 0.28184
f 1177 1178 1179
v 0.22825 0.17345 0.30808
v 0.34255 0.13926 0.28184
v 0.22825 0.13926 0.28184
f 1180 1181 1182
v 0.22825 0.25600 0.16510
v 0.22825 0.17345 0.30808
v 0.22825 0.13926 0.28184
f 1183 1184 1185
v 0.34255 0.25600 0.16510
v 0.34255 0.13926 0.28184
v 0.34255 0.17345 0.30808
f 1186 1187 1188
v 0.22825 0.13926 0.28184
v 0.34255 0.13926 0.28184
v 0.34255 0.11302 0.24765
f 1189 1190 1191
v 0.22825 0.13926 0.28184
v 0.34255 0.11302 0.24765
v 0.22825 0.11302 0.24765
f 1192 1193 1194
v 0.22825 0.25600 0.16510
v 0.22825 0.13926 0.28184
v 0.22825 0.11302 0.24765
f 1195 1196 1197
v 0.34255 0.25600 0.16510
v 0.34255 0.11302 0.24765
v 0.34255 0.13926 0.28184
f 1198 1199 1200
v 0.22825 0.11302 0.24765
v 0.34255 0.11302 0.24765
v 0.34255 0.09653 0.20783
f 1201 1202 1203
v 0.22825 0.11302 0.24765
v 0.34255 0.09653 0.20783
v 0.22825 0.09653 0.20783
f 1204 1205 1206
v 0.22825 0.25600 0.16510
v 0.22825 0.11302 0.24765
v 0.22825 0.09653 0.20783
f 1207 1208 1209
v 0.34255 0.25600 0.16510
v 0.34255 0.09653 0.20783
v 0.34255 0.11302 0.24765
f 1210 1211 1212
v 0.22825 0.09653 0.20783
v 0.34255 0.09653 0.20783
v 0.34255 0.09090 0.16510
f 1213 1214 1215
v 0.22825 0.09653 0.20783
v 0.34255 0.09090 0.16510
v 0.22825 0.09090 0.16510
f 1216 1217 1218
v 0.22825 0.25600 0.16510
v 0.22825 0.09653 0.20783
v 0.22825 0.09090 0.16510
f 1219 1220 1221
v 0.34255 0.25600 0.16510
v 0.34255 0.09090 0.16510
v 0.34255 0.09653 0.20783
f 1222 1223 1224
v 0.22825 0.09090 0.16510
v 0.34255 0.09090 0.16510
v 0.34255 0.09653 0.12237
f 1225 1226 1227
v 0.22825 0.09090 0.16510
v 0.34255 0.09653 0.12237
v 0.22825 0.09653 0.12237
f 1228 1229 1230
v 0.22825 0.25600 0.16510
v 0.22825 0.09090 0.16510
v 0.22825 0.09653 0.12237
f 1231 1232 1233
v 0.34255 0.25600 0.16510
v 0.34255 0.09653 0.12237
v 0.34255 0.09090 0.16510
f 1234 1235 1236
v 0.22825 0.09653 0.12237
v 0.34255 0.09653 0.12237
v 0.34255 0.11302 0.08255
f 1237 1238 1239
v 0.22825 0.09653 0.12237
v 0.34255 0.11302 0.08255
v 0.22825 0.11302 0.08255
f 1240 1241 1242
v 0.22825 0.25600 0.16510
v 0.22825 0.09653 0.12237
v 0.22825 0.11302 0.08255
f 1243 1244 1245
v 0.34255 0.25600 0.16510
v 0.34255 0.11302 0.08255
v 0.34255 0.09653 0.12237
f 1246 1247 1248
v 0.22825 0.11302 0.08255
v 0.34255 0.11302 0.08255
v 0.34255 0.13926 0.04836
f 1249 1250 1251
v 0.22825 0.11302 0.08255
v 0.34255 0.13926 0.04836
v 0.22825 0.13926 0.04836
f 1252 1253 1254
v 0.22825 0.25600 0.16510
v 0.22825 0.11302 0.08255
v 0.22825 0.13926 0.04836
f 1255 1256 1257
v 0.34255 0.25600 0.16510
v 0.34255 0.13926 0.04836
v 0.34255 0.11302 0.08255
f 1258 1259 1260
v 0.22825 0.13926 0.04836
v 0.34255 0.13926 0.04836
v 0.34255 0.17345 0.02212
f 1261 1262 1263
v 0.22825 0.13926 0.04836
v 0.34255 0.17345 0.02212
v 0.22825 0.17345 0.02212
f 1264 1265 1266
v 0.22825 0.25600 0.16510
v 0.22825 0.13926 0.04836
v 0.22825 0.17345 0.02212
f 1267 1268 1269
v 0.34255 0.25600 0.16510
v 0.34255 0.17345 0.02212
v 0.34255 0.13926 0.04836
f 1270 1271 1272
v 0.22825 0.17345 0.02212
v 0.34255 0.17345 0.02212
v 0.34255 0.21327 0.00563
f 1273 1274 1275
v 0.22825 0.17345 0.02212
v 0.34255 0.21327 0.00563
v 0.22825 0.21327 0.00563
f 1276 1277 1278
v 0.22825 0.25600 0.16510
v 0.22825 0.17345 0.02212
v 0.22825 0.21327 0.00563
f 1279 1280 1281
v 0.34255 0.25600 0.16510
v 0.34255 0.21327 0.00563
v 0.34255 0.17345 0.02212
f 1282 1283 1284
v 0.22825 0.21327 0.00563
v 0.34255 0.21327 0.00563
v 0.34255 0.25600 0.00000
f 1285 1286 1287
v 0.22825 0.21327 0.00563
v 0.34255 0.25600 0.00000
v 0.22825 0.25600 0.00000
f 1288 1289 1290
v 0.22825 0.25600 0.16510
v 0.22825 0.21327 0.00563
v 0.22825 0.25600 0.00000
f 1291 1292 1293
v 0.34255 0.25600 0.16510
v 0.34255 0.25600 0.00000
v 0.34255 0.21327 0.00563
f 1294 1295 1296
v 0.22825 0.25600 0.00000
v 0.34255 0.25600 0.00000
v 0.34255 0.29873 0.00563
f 1297 1298 1299
v 0.22825 0.25600 0.00000
v 0.34255 0.29873 0.00563
v 0.22825 0.29873 0.00563
f 1300 1301 1302
v 0.22825 0.25600 0.16510
v 0.22825 0.25600 0.00000
v 0.22825 0.29873 0.00563
f 1303 1304 1305
v 0.34255 0.25600 0.16510
v 0.34255 0.29873 0.00563
v 0.34255 0.25600 0.00000
f 1306 1307 1308
v 0.22825 0.29873 0.00563
v 0.34255 0.29873 0.00563
v 0.34255 0.33855 0.02212
f 1309 1310 1311
v 0.22825 0.29873 0.00563
v 0.34255 0.33855 0.02212
v 0.22825 0.33855 0.02212
f 1312 1313 1314
v 0.22825 0.25600 0.16510
v 0.22825 0.29873 0.00563
v 0.22825 0.33855 0.02212
f 1315 1316 1317
v 0.34255 0.25600 0.16510
v 0.34255 0.33855 0.02212
v 0.34255 0.29873 0.00563
f 1318 1319 1320
v 0.22825 0.33855 0.02212
v 0.34255 0.33855 0.02212
v 0.34255 0.37274 0.04836
f 1321 1322 1323
v 0.22825 0.33855 0.02212
v 0.34255 0.37274 0.04836
v 0.22825 0.37274 0.04836
f 1324 1325 1326
v 0.22825 0.25600 0.16510
v 0.22825 0.33855 0.02212
v 0.22825 0.37274 0.04836
f 1327 1328 1329
v 0.34255 0.25600 0.16510
v 0.34255 0.37274 0.04836
v 0.34255 0.33855 0.02212
f 1330 1331 1332
v 0.22825 0.37274 0.04836
v 0.34255 0.37274 0.04836
v 0.34255 0.39898 0.08255
f 1333 1334 1335
v 0.22825 0.37274 0.04836
v 0.34255 0.39898 0.08255
v 0.22825 0.39898 0.08255
f 1336 1337 1338
v 0.22825 0.25600 0.16510
v 0.22825 0.37274 0.04836
v 0.22825 0.39898 0.08255
f 1339 1340 1341
v 0.34255 0.25600 0.16510
v 0.34255 0.39898 0.08255
v 0.34255 0.37274 0.04836
f 1342 1343 1344
v 0.22825 0.39898 0.08255
v 0.34255 0.39898 0.08255
v 0.34255 0.41547 0.12237
f 1345 1346 1347
v 0.22825 0.39898 0.08255
v 0.34255 0.41547 0.12237
v 0.22825 0.41547 0.12237
f 1348 1349 1350
v 0.22825 0.25600 0.16510
v 0.22825 0.39898 0.08255
v 0.22825 0.41547 0.12237
f 1351 1352 1353
v 0.34255 0.25600 0.16510
v 0.34255 0.41547 0.12237
v 0.34255 0.39898 0.08255
f 1354 1355 1356
v 0.22825 0.41547 0.12237
v 0.34255 0.41547 0.12237
v 0.34255 0.42110 0.16510
f 1357 1358 1359
v 0.22825 0.41547 0.12237
v 0.34255 0.42110 0.16510
v 0.22825 0.42110 0.16510
f 1360 1361 1362
v 0.22825 0.25600 0.16510
v 0.22825 0.41547 0.12237
v 0.22825 0.42110 0.16510
f 1363 1364 1365
v 0.34255 0.25600 0.16510
v 0.34255 0.42110 0.16510
v 0.34255 0.41547 0.12237
f 1366 1367 1368
